<svg width="32" height="27" viewBox="0 0 32 27" fill="none" xmlns="http://www.w3.org/2000/svg">
<g clip-path="url(#clip0_243_1048)">
<path d="M31.3246 0.0727994C28.2011 0.843616 25.2401 2.03553 22.5025 3.82268C21.3367 4.58351 20.2468 5.42141 19.2246 6.33212C19.9598 7.07153 20.6029 7.91229 21.1296 8.83584C21.3963 8.53466 21.6684 8.23918 21.9514 7.95369C22.9953 6.75749 24.0947 5.62411 25.3647 4.69056C25.3633 4.69056 25.3931 4.67486 25.3931 4.67486C26.1093 3.95258 26.9149 3.36019 27.7652 2.82918C27.8288 2.78208 27.8911 2.73497 27.9547 2.68787C28.0617 2.54084 28.2093 2.45805 28.3717 2.3981C29.3709 1.63442 30.4676 1.04774 31.5494 0.433941C31.724 0.335448 31.9501 0.281205 32.0002 0C31.7525 0.0256939 31.5331 0.0214116 31.3246 0.0727994Z" fill="#ED1E24"/>
<path d="M13.0667 21.5086C12.9205 21.7855 12.7689 22.0596 12.6023 22.3665C12.3952 22.2366 12.3532 22.0382 12.2774 21.8755C11.1848 19.5302 10.1098 17.1735 8.62179 15.0637C7.73903 13.8119 6.74796 12.6799 5.43736 11.9134C5.22073 11.7863 5.18282 11.6236 5.18418 11.3924C5.20042 9.63804 6.44603 8.6317 8.10053 9.06849C9.58172 9.45961 10.6473 10.4802 11.5639 11.7021C11.9931 12.2745 12.3491 12.8997 12.6646 13.5521C12.7431 13.7162 12.754 13.9903 12.9625 13.9974C13.1358 14.0031 13.1777 13.7491 13.2658 13.6049C14.9351 10.8471 16.9024 8.40473 19.2271 6.33495C17.1854 4.28086 14.422 3.01758 11.377 3.01758C5.09211 3.01472 0 8.38332 0 15.0081C0 21.6314 5.09211 27.0014 11.3757 27.0014C17.6579 27.0014 22.7513 21.6328 22.7513 15.0081C22.7513 12.7513 22.1583 10.6401 21.1307 8.83725C20.1315 9.96635 19.2393 11.1897 18.3768 12.4372C16.3865 15.3178 14.7077 18.4011 13.0667 21.5086Z" fill="#ED1E24"/>
</g>
<defs>
<clipPath id="clip0_243_1048">
<rect width="32" height="27" fill="white"/>
</clipPath>
</defs>
</svg>
