<svg width="22" height="27" viewBox="0 0 22 27" fill="none" xmlns="http://www.w3.org/2000/svg">
<path d="M21.9776 21.437C21.9469 20.9772 21.9183 20.5174 21.8876 20.0577C21.7981 18.7123 21.4748 17.4263 20.9351 16.1941C20.6096 15.4516 20.189 14.7752 19.6113 14.2057C18.8574 13.4626 17.9497 13.0413 16.9189 12.8541C16.156 12.7156 15.4804 12.87 14.8518 13.3326C14.2841 13.7505 13.6851 14.1226 13.033 14.3969C12.0872 14.7944 11.1119 14.9352 10.0984 14.7407C9.18792 14.566 8.37584 14.1616 7.61353 13.6408C7.32103 13.4406 7.02069 13.2517 6.72036 13.0639C6.17953 12.7258 5.5906 12.7614 5.00112 12.8654C3.42673 13.1425 2.24609 14.0004 1.45638 15.395C0.634228 16.8467 0.248322 18.4369 0.0805369 20.0888C-0.00447427 20.9274 -0.01566 21.7689 0.0167785 22.6121C0.0659955 23.8896 0.536353 24.9686 1.47315 25.8265C2.31152 26.5939 3.32662 26.9796 4.43848 26.9858C8.70134 27.0101 12.9642 26.9943 17.2271 26.9983C17.5861 26.9988 17.9396 26.97 18.2936 26.9112C20.1745 26.5984 21.6225 25.1366 21.9155 23.2449C21.9446 23.0555 21.972 22.866 22 22.6766C22 22.3096 22 21.942 22 21.575C21.9922 21.5292 21.981 21.4833 21.9776 21.437Z" fill="#E21111"/>
<path d="M10.9598 12.7032C14.466 12.7032 17.2741 9.88183 17.2758 6.35754C17.278 2.86095 14.4654 0.00226418 11.0208 2.11419e-06C7.53364 -0.00282547 4.71876 2.83098 4.71485 6.34623C4.71093 9.8513 7.51295 12.7032 10.9598 12.7032Z" fill="#E21111"/>
</svg>
