<svg width="40" height="40" viewBox="0 0 40 40" fill="none" xmlns="http://www.w3.org/2000/svg">
<path d="M20.0223 2.02618e-05C30.9492 -0.0155951 40.0045 8.99672 40 19.8807C39.9955 30.9542 31.0831 39.9821 20.1428 40C9.07306 40.0156 0.00446347 31.0903 1.67831e-06 20.1729C-0.00446012 8.97441 8.8879 0.0156357 20.0223 2.02618e-05ZM22.2487 32.1008C22.2487 28.0654 22.2487 24.1147 22.2487 20.0613C23.5137 20.0613 24.647 20.0613 25.7847 20.0613C25.7847 18.3771 25.7847 16.8 25.7847 15.08C24.5845 15.08 23.4557 15.08 22.3469 15.08C22.0993 13.0679 22.2934 12.8359 24.1249 12.8113C24.6715 12.8046 25.2181 12.8091 25.7959 12.8091C25.7959 11.0713 25.7959 9.48972 25.7959 7.86349C24.3681 7.86349 22.9983 7.83895 21.6308 7.86795C19.0206 7.92818 17.1177 9.81318 17.0017 12.4433C16.9637 13.3133 16.995 14.1877 16.995 15.1403C15.9509 15.1403 15.1076 15.1403 14.222 15.1403C14.222 16.8312 14.222 18.4351 14.222 20.1127C15.1433 20.1127 15.9844 20.1127 16.9437 20.1127C16.9437 24.1392 16.9437 28.0944 16.9437 32.1008C18.7195 32.1008 20.377 32.1008 22.2487 32.1008Z" fill="#4BACFF"/>
<path d="M22.248 32.1003C20.3762 32.1003 18.7187 32.1003 16.9429 32.1003C16.9429 28.0938 16.9429 24.1386 16.9429 20.112C15.9836 20.112 15.1426 20.112 14.2212 20.112C14.2212 18.4344 14.2212 16.8305 14.2212 15.1396C15.1069 15.1396 15.9479 15.1396 16.9942 15.1396C16.9942 14.187 16.963 13.3125 17.0009 12.4425C17.1147 9.81021 19.0199 7.92519 21.63 7.86719C22.9975 7.83596 24.3651 7.86273 25.7951 7.86273C25.7951 9.48897 25.7951 11.0684 25.7951 12.8084C25.2173 12.8084 24.6707 12.8017 24.1241 12.8106C22.2926 12.8352 22.0985 13.0694 22.3461 15.0793C23.4549 15.0793 24.5837 15.0793 25.7839 15.0793C25.7839 16.7993 25.7839 18.3764 25.7839 20.0607C24.6484 20.0607 23.5151 20.0607 22.248 20.0607C22.248 24.114 22.248 28.0648 22.248 32.1003Z" fill="white"/>
</svg>
