<svg width="50" height="51" viewBox="0 0 50 51" fill="none" xmlns="http://www.w3.org/2000/svg">
<path fill-rule="evenodd" clip-rule="evenodd" d="M23.3358 6.73198H26.6674C26.6674 6.23832 26.6678 5.74801 26.6683 5.2601V5.25936C26.6693 4.04802 26.6703 2.85143 26.6648 1.65484C26.6597 0.678927 25.9885 0.0107558 25.0287 -2.11105e-05C24.0392 -0.00960063 23.3435 0.66336 23.3371 1.66442C23.3307 2.66174 23.3321 3.65965 23.3334 4.65774V4.65783V4.65792V4.65802C23.3339 5.07391 23.3345 5.48983 23.3345 5.90575C23.3358 6.18475 23.3358 6.46495 23.3358 6.73198ZM11.4845 12.8676C10.7644 12.1947 10.03 11.5085 9.29438 10.8236C9.09313 10.6362 8.89053 10.4499 8.68791 10.2636L8.68769 10.2634L8.68746 10.2632L8.68723 10.263L8.68701 10.2628L8.68678 10.2626L8.68655 10.2623L8.68653 10.2623C8.23198 9.84438 7.77731 9.42632 7.33741 8.99511C6.65459 8.32574 6.66747 7.39413 7.33612 6.78703C7.99317 6.1919 8.9723 6.16795 9.66542 6.79661C10.6457 7.68563 11.6104 8.58969 12.5806 9.49899L12.5812 9.49947C12.979 9.87234 13.3778 10.2461 13.7791 10.62C13.1087 11.2762 12.4691 11.9029 11.8012 12.5573L11.7998 12.5587L11.7994 12.5591L11.4845 12.8676ZM42.7406 8.91014C43.3835 8.29586 43.3113 7.37862 42.6749 6.79427C42.0372 6.20872 41.0748 6.1692 40.392 6.75116C39.9379 7.1381 39.5054 7.54674 39.0728 7.95547L39.0728 7.95549L39.0727 7.95555C38.8708 8.14633 38.6688 8.33714 38.4646 8.52576C37.897 9.04882 37.3287 9.57051 36.7613 10.0914L36.7587 10.0937L36.2036 10.6033L36.5035 10.8961C37.1813 11.558 37.8254 12.1869 38.493 12.8377C38.9223 12.4419 39.3524 12.0487 39.7817 11.6562L39.7818 11.6561L39.7827 11.6553L39.7835 11.6546C40.7795 10.7438 41.7714 9.83693 42.7406 8.91014ZM25.9393 44.0009H25.9416C26.9705 43.9999 27.9994 43.9989 29.0283 44.0031C30.1962 44.0079 30.9857 44.6019 31.0001 45.474C31.0144 46.3353 30.2191 46.9851 29.0684 46.99C26.0249 47.0033 22.9827 47.0033 19.9391 46.99C18.787 46.9851 17.9903 46.3389 18.0003 45.4801C18.0104 44.608 18.7999 44.0079 19.9663 44.0031C21.027 43.9989 22.0876 43.9999 23.1482 44.0009H23.1505C23.6224 44.0014 24.0943 44.0018 24.5661 44.0018C25.0239 44.0018 25.4816 44.0014 25.9393 44.0009ZM19.9007 48.0082C22.9618 47.9973 26.0214 47.9973 29.0824 48.0082C30.2103 48.0118 31.0199 48.6739 30.9999 49.5281C30.9812 50.3955 30.1873 50.9936 29.0323 50.9972C27.9622 51.0006 26.8914 50.9998 25.8205 50.9991H25.8203H25.8202H25.8201H25.82H25.8199H25.8198H25.8197H25.8195C25.3604 50.9987 24.9013 50.9984 24.4421 50.9984C24.0113 50.9984 23.5806 50.9988 23.1498 50.9992C22.073 51.0002 20.9962 51.0012 19.9194 50.996C18.7887 50.99 17.9847 50.3484 18.0005 49.4858C18.0162 48.6509 18.8087 48.0118 19.9007 48.0082ZM48.198 21.6916C46.6437 21.6863 45.0895 21.6886 43.5353 21.6908L42.9532 21.6916C42.8475 21.6916 42.7417 21.7023 42.6326 21.7133C42.5781 21.7188 42.5228 21.7244 42.4662 21.7288C42.4909 22.2195 42.5151 22.7018 42.5392 23.1835C42.5653 23.7056 42.5914 24.2271 42.6182 24.7583C42.6621 24.7637 42.6979 24.769 42.7287 24.7737C42.78 24.7814 42.8174 24.787 42.8553 24.787C43.3667 24.7874 43.8781 24.7883 44.3895 24.7892C45.6675 24.7915 46.9456 24.7939 48.2237 24.787C49.2608 24.781 49.9913 24.1356 50.0003 23.2507C50.0106 22.3323 49.2827 21.6952 48.198 21.6916ZM7.36301 21.7123L7.36315 21.7123L7.36332 21.7123C7.41946 21.7177 7.4771 21.7231 7.53704 21.7276L7.50246 22.4274C7.46409 23.2035 7.42596 23.9748 7.3863 24.7894H6.47932C6.03281 24.7894 5.58629 24.79 5.13978 24.7906C4.02355 24.792 2.90732 24.7935 1.7911 24.7858C0.726938 24.7774 -0.0177159 24.1057 0.000320642 23.2016C0.0183572 22.3179 0.747551 21.6964 1.79625 21.6916C3.34929 21.6863 4.90131 21.6886 6.45413 21.6908H6.45483H6.45554H6.45624H6.45695L7.03974 21.6916C7.14592 21.6916 7.25154 21.7017 7.36301 21.7123ZM7.30906 39.6579C6.69196 39.0736 6.64429 38.148 7.27686 37.5337C8.03973 36.7924 8.82453 36.0704 9.62258 35.3361L9.62329 35.3354L9.62745 35.3316C9.95585 35.0295 10.2865 34.7252 10.6188 34.4167L11.5201 35.4687L12.7806 36.9397C12.6495 37.0465 12.5142 37.1543 12.3769 37.2637L12.3763 37.2641C12.0657 37.5116 11.7448 37.7672 11.4394 38.0378C11.1613 38.2843 10.8912 38.539 10.6211 38.7938L10.621 38.7938L10.6209 38.7939L10.6208 38.794L10.6207 38.7941C10.2992 39.0974 9.97754 39.4007 9.64222 39.6903C8.95297 40.2854 7.93906 40.2554 7.30906 39.6579ZM39.3536 34.4575C38.9533 34.9251 38.5557 35.3884 38.1546 35.8558C37.8819 36.1737 37.6075 36.4934 37.3296 36.8177C37.6422 37.1132 37.9513 37.4097 38.2595 37.7052L38.2598 37.7054C38.9877 38.4035 39.7103 39.0964 40.4615 39.761C41.0709 40.2998 42.05 40.2268 42.6517 39.6975C43.2585 39.1634 43.4092 38.2474 42.8359 37.6762C42.0399 36.8843 41.202 36.1289 40.3642 35.3735L40.3639 35.3733C40.0262 35.0688 39.6885 34.7644 39.3536 34.4575ZM18.9077 11.0939C22.3871 9.73165 25.9827 9.63467 29.4657 10.8426C36.3584 13.2341 39.5895 18.9662 38.912 24.793C38.5549 27.8712 37.2035 30.5008 34.8566 32.7358C34.7059 32.8796 34.5575 33.0256 34.4091 33.1715C34.1083 33.4674 33.8075 33.7632 33.4881 34.0407C32.6736 34.7483 32.2358 35.5914 32.1966 36.6119C32.1854 36.9117 32.1646 37.2111 32.1439 37.5103C32.1171 37.8964 32.0903 38.2823 32.0841 38.6684C32.0511 40.6599 30.6239 41.9692 28.4091 41.9935C27.5094 42.0026 26.6098 42.0002 25.7102 41.9978C25.3013 41.9968 24.8923 41.9957 24.4833 41.9957C24.1493 41.996 23.8153 41.9967 23.4812 41.9973C22.5458 41.9992 21.6104 42.0011 20.6749 41.9946C18.3855 41.9781 16.9705 40.6842 16.9302 38.6233C16.922 38.1819 16.8829 37.7408 16.8438 37.2998C16.8129 36.9512 16.782 36.6026 16.7663 36.2537C16.7296 35.4062 16.2661 34.7604 15.6534 34.1653C15.4871 34.0036 15.32 33.8425 15.1529 33.6813C14.5064 33.0576 13.8593 32.4334 13.2539 31.7792C7.79209 25.873 8.90255 15.0107 18.9077 11.0939Z" fill="white"/>
</svg>
