<svg width="39" height="45" viewBox="0 0 39 45" fill="none" xmlns="http://www.w3.org/2000/svg">
<path d="M26.5677 7.79029C26.4925 12.1169 22.8177 15.4855 18.2589 15.4054C13.8504 15.3282 10.2719 11.7737 10.3712 7.5701C10.4704 3.27783 14.109 -0.0564673 18.6288 0.000724806C23.0493 0.0579169 26.6428 3.58667 26.5677 7.79029Z" fill="#F2F2F2"/>
<path d="M15.6612 22.6486C11.3189 21.1016 6.97659 19.5517 2.62825 18.0161C1.27804 17.5385 0.150358 18.0161 0.0481144 19.2057C-0.060143 20.4296 0.0481144 21.6678 0.0481144 22.886V35.0193V35.025C0.0541287 35.4997 0.0721716 35.9687 0.0481144 36.432C-0.00902145 37.49 0.625487 38.4623 1.67198 38.8226C5.79478 40.241 9.89352 41.7251 13.9983 43.1835C14.9997 43.5381 16.001 43.8955 17.0896 44.2844C17.5497 44.4474 18.0399 44.1243 18.0399 43.6582V43.335C18.0399 36.4634 18.0399 32.7373 18.0399 25.8657C18.0429 23.5008 18.0429 23.4979 15.6612 22.6486Z" fill="#F2F2F2"/>
<path d="M22.3431 22.6488C26.6854 21.1018 31.0277 19.5519 35.3731 18.0191C36.7233 17.5416 37.851 18.0191 37.9532 19.2087C38.0615 20.4326 37.9532 21.6709 37.9532 22.889V35.0224V35.0281C37.9833 35.0223 37.9532 36.435 37.9532 36.435C38.0103 37.493 37.3758 38.4653 36.3293 38.8256C32.2065 40.244 28.1078 41.7281 24.003 43.1865C23.0017 43.5411 22.0003 43.8986 20.9117 44.2875C20.4516 44.4505 19.9614 44.1273 19.9614 43.6612V43.3381C19.9614 36.4665 19.9614 32.7404 19.9614 25.8688C19.9614 23.501 19.9584 23.4981 22.3431 22.6488Z" fill="#F2F2F2"/>
<path d="M5.85577 16.8611L10.3334 15.2425C10.9018 14.9651 11.5724 14.9623 12.1407 15.2368C14.0382 16.1519 18.4678 19.2689 25.1617 15.1567C25.718 14.8136 26.4698 14.9451 27.0321 15.2797L31.1158 17.1356C31.4166 17.3129 31.3684 17.7447 31.0377 17.8591L19.5443 21.8711C19.0271 22.0513 18.4617 22.0513 17.9475 21.8682L5.90088 17.6017C5.55506 17.4787 5.52799 17.0212 5.85577 16.8611Z" fill="#F2F2F2"/>
</svg>
