<svg width="37" height="37" viewBox="0 0 37 37" fill="none" xmlns="http://www.w3.org/2000/svg">
<path fill-rule="evenodd" clip-rule="evenodd" d="M28.9562 2.05016L34.7761 7.52499C36.3776 9.03484 36.4297 11.5819 34.8803 13.1574L11.9523 36.5009C11.6398 36.816 11.2101 36.9998 10.7675 36.9998H1.67957C0.755154 36.9998 0 36.2383 0 35.3062V26.1421C0 25.6957 0.182278 25.2624 0.507776 24.9473L17.7201 7.87948L21.2745 11.4637C22.3682 12.5666 24.204 12.4615 25.1544 11.1355C25.8966 10.0983 25.6752 8.64097 24.7769 7.73506L21.3656 4.29524L23.579 2.1158C25.0633 0.645345 27.4329 0.619086 28.9562 2.05016ZM20.8421 33.2104C19.7957 33.2104 18.9474 34.0587 18.9474 35.1051C18.9474 36.1515 19.7957 36.9998 20.8421 36.9998H33.1579C34.2043 36.9998 35.0526 36.1515 35.0526 35.1051C35.0526 34.0587 34.2043 33.2104 33.1579 33.2104H20.8421Z" fill="white"/>
</svg>
