<svg width="30" height="30" viewBox="0 0 30 30" fill="none" xmlns="http://www.w3.org/2000/svg">
<path fill-rule="evenodd" clip-rule="evenodd" d="M11.7583 0.511234C4.67007 2.82001 2.11876 11.5508 6.86564 17.3118C7.66018 18.275 8.31838 19.29 8.61614 20.5133C8.65579 20.6764 8.69381 20.8395 8.73197 21.0031L8.77599 21.1916H14.0729V15.8864C13.9834 15.8864 13.8987 15.887 13.8175 15.8876H13.8174H13.8173H13.8173H13.8172H13.8171H13.8171H13.817H13.817C13.644 15.889 13.4863 15.8901 13.3285 15.8848C11.1126 15.8237 9.36523 14.5002 8.97188 12.4373C8.82807 11.6808 8.84786 10.8893 8.86747 10.1048L8.86747 10.1048C8.87137 9.94887 8.87525 9.79327 8.87785 9.63827C8.88569 9.13235 9.2571 8.8833 9.74918 8.8739C10.3933 8.86137 11.0389 8.8645 11.683 8.88487C12.8772 8.92402 13.8645 9.42212 14.6841 10.2773C14.7518 10.3481 14.8244 10.4155 14.9036 10.489L14.9037 10.4891L14.9038 10.4892L14.9038 10.4892C14.9437 10.5262 14.9853 10.5648 15.0289 10.6063C15.6761 9.81214 16.4315 9.18717 17.4062 9.03993C18.3727 8.89419 19.3667 8.89578 20.3473 8.89735H20.3474L20.3776 8.8974C20.8837 8.8974 21.1329 9.27802 21.1408 9.76828L21.1436 9.94219C21.1541 10.5866 21.1647 11.2341 21.1172 11.875C20.9605 14.0068 19.2617 15.6875 17.1226 15.8566C16.8422 15.8785 16.5611 15.892 16.277 15.9056H16.277H16.277H16.277L16.2769 15.9056C16.1546 15.9115 16.0317 15.9174 15.9081 15.924V21.1963H21.1549C21.2365 20.9718 21.3106 20.7476 21.384 20.5257C21.5488 20.0275 21.7095 19.5413 21.9416 19.0927C22.2785 18.4411 22.733 17.8427 23.1874 17.2601C25.0476 14.8824 25.8187 12.2118 25.452 9.2091C24.6637 2.72447 17.9908 -1.51874 11.7583 0.511234ZM8.9185 22.9977C8.51261 24.9447 9.70521 26.4766 11.6406 26.4891C13.2643 26.4997 14.8879 26.497 16.5109 26.4944H16.5113H16.5116H16.5119H16.5122H16.5125H16.5128H16.5131H16.5134H16.5137H16.5141H16.5145H16.5149H16.5153H16.5156H16.516H16.5164H16.5168H16.5172C17.057 26.4935 17.5968 26.4926 18.1364 26.4922C20.2599 26.4907 21.382 25.1922 21.1015 22.9977H8.9185ZM10.6411 10.6831C10.2791 13.2973 12.3007 14.5002 14.0872 14.0335C14.3129 11.7106 12.8962 10.3166 10.6411 10.6831ZM19.3432 10.6674C16.8436 10.2867 15.5116 12.1742 15.9707 14.0898C18.2619 14.3717 19.6645 12.9667 19.3432 10.6674ZM18.4421 28.2792C17.6319 29.3318 16.6101 29.8769 15.3737 29.9818C13.841 30.1134 12.5936 29.526 11.5232 28.2792H18.4421ZM2.78017 10.6596C2.10317 10.6079 1.41676 10.6095 0.738183 10.6533C0.271174 10.6831 0.00475928 11.0199 5.7846e-05 11.4851C-0.00464359 11.9785 0.277442 12.2949 0.771093 12.3513C0.997196 12.3773 1.22782 12.371 1.45827 12.3647H1.45828C1.56006 12.3619 1.6618 12.3591 1.7631 12.3591V12.3528C1.86518 12.3528 1.96771 12.356 2.07028 12.3591C2.29994 12.3661 2.52976 12.3731 2.7551 12.345C3.22367 12.2855 3.48695 11.9738 3.49479 11.5101C3.50106 11.0449 3.24718 10.6956 2.78017 10.6596ZM27.2682 10.6486C27.9264 10.6032 28.5925 10.6063 29.2522 10.6502C29.7208 10.6815 29.9904 11.012 29.9998 11.4772C30.0092 11.9706 29.7318 12.2901 29.2366 12.3512C29.0112 12.3794 28.7814 12.3724 28.5518 12.3653C28.4492 12.3622 28.3467 12.3591 28.2446 12.3591V12.3559C28.1429 12.3559 28.0407 12.3589 27.9385 12.3619C27.7085 12.3685 27.4783 12.3752 27.2526 12.3481C26.784 12.2917 26.5144 11.9831 26.505 11.5195C26.4972 11.0261 26.773 10.6815 27.2682 10.6486ZM1.91816 7.56288C2.10152 7.71168 2.53875 7.69602 2.77853 7.58324C2.94948 7.50284 3.06866 7.31334 3.17467 7.14476C3.21735 7.07691 3.25789 7.01244 3.29882 6.95984C3.27407 6.8747 3.25862 6.80139 3.24548 6.73905C3.22286 6.63168 3.2071 6.55688 3.16248 6.51031C3.04746 6.39043 2.93326 6.26953 2.81904 6.14861L2.81896 6.14853C2.38696 5.69117 1.95463 5.23346 1.47623 4.82963C1.16123 4.56335 0.753774 4.72468 0.479524 5.02542C0.202139 5.32929 0.117514 5.7287 0.387062 6.04354C0.854072 6.58862 1.36026 7.11334 1.91816 7.56288ZM27.7162 7.72582C27.6544 7.73732 27.5822 7.75078 27.4988 7.77274C27.4469 7.73068 27.3823 7.68863 27.3144 7.64442L27.3144 7.6444C27.1446 7.53384 26.9541 7.40981 26.8892 7.23862C26.7889 6.97704 26.8014 6.5416 26.9628 6.33327C27.3656 5.81169 27.8593 5.35745 28.3545 4.91731C28.6836 4.62284 29.0848 4.64946 29.4248 4.93454C29.7367 5.19455 29.9263 5.60023 29.663 5.91663C29.2566 6.40532 28.7921 6.84564 28.3281 7.28549L28.3281 7.28552C28.2017 7.40534 28.0753 7.52514 27.9501 7.64586C27.903 7.69101 27.8262 7.70531 27.7162 7.72582ZM2.918 15.4774C2.57793 15.1924 2.17674 15.1657 1.84764 15.4602C1.35242 15.9003 0.858768 16.3546 0.456011 16.8762C0.294596 17.0845 0.282058 17.5199 0.382356 17.7815C0.448024 17.9517 0.637802 18.0753 0.806838 18.1854C0.875805 18.2303 0.941319 18.273 0.993542 18.3156C1.07691 18.2937 1.14914 18.2802 1.2109 18.2687C1.32094 18.2482 1.3977 18.2339 1.44488 18.1888C1.56996 18.0681 1.69626 17.9484 1.82259 17.8286L1.82281 17.8284L1.82282 17.8284C2.28683 17.3885 2.75134 16.9482 3.15777 16.4595C3.42105 16.1431 3.22986 15.739 2.918 15.4774ZM26.9598 15.5982C27.2215 15.2865 27.6274 15.0969 27.9439 15.3601C28.4293 15.7634 28.867 16.2238 29.3047 16.6842C29.428 16.8139 29.5513 16.9437 29.6756 17.0721C29.7209 17.1183 29.7351 17.1948 29.7557 17.3049C29.7672 17.3665 29.7807 17.4385 29.8026 17.5216C29.7594 17.5743 29.7164 17.64 29.6712 17.7091C29.5605 17.8781 29.4368 18.0669 29.2666 18.1325C29.0033 18.2327 28.5677 18.2202 28.3592 18.0589C27.8374 17.6563 27.3829 17.1629 26.9425 16.668C26.6479 16.3375 26.6745 15.9381 26.9598 15.5982Z" fill="#ED1E24"/>
</svg>
