<svg width="40" height="40" viewBox="0 0 40 40" fill="none" xmlns="http://www.w3.org/2000/svg">
<circle cx="20" cy="20" r="20" fill="white"/>
<path d="M14.8831 27.7138C14.9197 27.7479 14.9563 27.7828 14.9936 27.817C14.9999 27.847 15.0063 27.8771 15.0499 27.8696L15.0478 27.8682C15.0344 27.9168 15.0682 27.9468 15.0942 27.9803C15.9668 29.1334 17.5804 29.7055 19.0188 29.3713C20.821 28.953 21.9955 27.4827 21.9969 25.6318C22.0004 20.0366 22.0025 14.4407 21.9983 8.84548C21.9983 8.637 22.0419 8.57686 22.2657 8.58027C23.1777 8.59258 24.0897 8.58164 25.001 8.57959C25.0115 8.58848 25.0228 8.59531 25.0348 8.60146C25.236 9.69781 25.7399 10.652 26.49 11.4845C26.7201 11.7401 26.9327 12.0231 27.2683 12.1687L27.2662 12.1666C27.2472 12.2172 27.2803 12.2227 27.3183 12.2241L27.3155 12.22C27.3084 12.2576 27.3324 12.2699 27.3633 12.276C27.4316 12.3423 27.4999 12.4086 27.5681 12.4749C27.5794 12.5057 27.5899 12.5371 27.6343 12.5316L27.6279 12.5296C27.8883 12.9294 28.2542 13.2302 28.6307 13.5166C29.44 14.1324 30.3421 14.5569 31.3646 14.7196C31.3695 14.7284 31.3752 14.7366 31.3808 14.7448C31.3787 15.6478 31.3709 16.5514 31.3801 17.4543C31.3822 17.645 31.3336 17.6969 31.1338 17.6901C28.927 17.6135 26.9207 16.969 25.1263 15.7134C25.0608 15.6676 25.0123 15.5808 24.8983 15.5986C24.8983 15.6942 24.8983 15.7872 24.8983 15.8808C24.9032 18.7359 24.9067 21.5902 24.9137 24.4452C24.9151 24.992 24.8884 25.5361 24.7758 26.072C23.683 31.2639 17.7873 33.8599 12.9937 31.3288C12.7263 31.1874 12.4919 30.9926 12.2055 30.8832L12.2083 30.8859C12.209 30.8401 12.1767 30.8285 12.1394 30.8224C12.0577 30.7479 11.9761 30.6734 11.8945 30.5989C11.898 30.5811 11.891 30.5695 11.8727 30.564L11.8565 30.5476C11.8445 30.5332 11.8326 30.5189 11.8206 30.5045L11.8072 30.4922C11.7974 30.4663 11.7833 30.4471 11.7495 30.4567L11.7573 30.4437C11.7277 30.3931 11.7031 30.3391 11.6672 30.2926C10.8368 29.1908 10.3513 27.9626 10.1915 26.6037C9.827 23.4951 11.5687 20.3674 14.4517 18.9546C15.5995 18.3921 16.8113 18.107 18.0913 18.0797C18.0976 18.0879 18.1047 18.0954 18.1117 18.1029C18.1089 19.0318 18.1026 19.96 18.1075 20.8889C18.1082 21.0591 18.0737 21.1063 17.8943 21.0577C17.4087 20.9265 16.9154 20.8828 16.4116 20.9573C14.9042 21.1801 13.8332 21.9648 13.3026 23.3502C12.7727 24.733 13.0795 25.9975 14.083 27.0966C14.2941 27.3283 14.5165 27.5634 14.8374 27.6666L14.8353 27.6639C14.8261 27.7021 14.8529 27.7097 14.8831 27.7138Z" fill="#010000"/>
<path d="M12.2062 30.8835C12.4919 30.9928 12.727 31.1876 12.9944 31.3291C17.788 33.8602 23.6837 31.2642 24.7765 26.0723C24.8891 25.5364 24.9159 24.9923 24.9145 24.4455C24.9074 21.5905 24.9039 18.7361 24.899 15.8811C24.899 15.7875 24.899 15.6945 24.899 15.5988C25.013 15.5804 25.0615 15.6679 25.127 15.7137C26.9221 16.9693 28.9277 17.6138 31.1345 17.6904C31.3344 17.6972 31.3822 17.6453 31.3808 17.4546C31.3717 16.5516 31.3794 15.648 31.3815 14.7451C31.72 14.793 32.0585 14.8463 32.4012 14.8408C32.5511 14.8381 32.5912 14.8921 32.5905 15.0342C32.5848 16.2529 32.5827 17.471 32.5926 18.6897C32.594 18.8769 32.5018 18.8687 32.3695 18.8646C30.1528 18.799 28.1402 18.1497 26.3373 16.8907C26.2768 16.8483 26.2297 16.7786 26.1115 16.7738C26.1115 16.849 26.1108 16.9207 26.1115 16.9932C26.1368 19.8817 26.153 22.7702 26.191 25.658C26.2416 29.5349 23.3283 32.8561 19.339 33.3961C16.6107 33.7652 14.2716 32.9593 12.3301 31.0639C12.2794 31.0133 12.1915 30.9792 12.2062 30.8835Z" fill="#EE0244"/>
<path d="M25.0006 8.57972C24.0886 8.58177 23.1766 8.59271 22.2653 8.5804C22.0415 8.57767 21.9979 8.63782 21.9979 8.8456C22.0021 14.4408 22 20.0367 21.9965 25.6319C21.9951 27.4835 20.8213 28.9531 19.0184 29.3714C17.5808 29.7056 15.9672 29.1335 15.0939 27.9805C15.0685 27.947 15.034 27.9169 15.0474 27.8684C15.3507 27.9695 15.6484 28.0925 15.9587 28.1671C18.4125 28.7603 20.7263 27.0126 20.7334 24.5533C20.7425 21.3928 20.7376 18.2322 20.7383 15.0717C20.739 12.6097 20.7411 10.1477 20.7334 7.68569C20.7334 7.46833 20.777 7.40067 21.0162 7.4034C22.2266 7.41707 23.437 7.41434 24.6474 7.40545C24.8388 7.40408 24.8993 7.44646 24.9042 7.64194C24.9127 7.95499 24.9661 8.26736 25.0006 8.57972Z" fill="#09FDF7"/>
<path d="M18.093 18.0792C16.8122 18.1065 15.6004 18.3916 14.4534 18.9541C11.5703 20.3676 9.82794 23.4946 10.1932 26.6032C10.3522 27.9621 10.8378 29.1903 11.6688 30.2921C11.704 30.3386 11.7287 30.3933 11.7589 30.4432C11.6442 30.5061 11.6048 30.3954 11.5513 30.3468C9.63372 28.6401 8.72805 26.5219 8.9082 24.0018C9.15802 20.5111 12.008 17.5502 15.5744 17.017C16.3513 16.9008 17.1261 16.8878 17.9065 16.9678C18.0627 16.9842 18.1183 17.0314 18.1106 17.1845C18.0944 17.4839 18.0972 17.7819 18.093 18.0792Z" fill="#0AFDF7"/>
<path d="M14.8394 27.6657C14.5186 27.5625 14.2962 27.3267 14.0851 27.0957C13.0816 25.9966 12.7748 24.7328 13.3047 23.3494C13.8353 21.9639 14.9063 21.1792 16.4136 20.9564C16.9168 20.8819 17.4108 20.9256 17.8963 21.0569C18.0758 21.1054 18.111 21.0582 18.1096 20.8881C18.1046 19.9598 18.111 19.031 18.1138 18.1021C18.4832 18.072 18.8492 18.1178 19.2151 18.1513C19.3185 18.1609 19.372 18.1889 19.372 18.3037C19.3692 19.6236 19.3699 20.9434 19.3699 22.2845C18.8435 22.1478 18.3298 22.0849 17.8013 22.1266C15.1406 22.3385 13.532 25.1244 14.7388 27.4354C14.7768 27.5099 14.843 27.5741 14.8394 27.6657Z" fill="#EE0245"/>
<path d="M27.2677 12.1673C26.9321 12.0217 26.7203 11.7387 26.4894 11.4831C25.7393 10.6506 25.2354 9.69641 25.0342 8.60007C25.3579 8.5946 25.6823 8.59186 26.006 8.58366C26.1038 8.58093 26.1489 8.61168 26.151 8.71284C26.1749 9.95546 26.5683 11.0846 27.2684 12.1181C27.2762 12.1304 27.2684 12.1509 27.2677 12.1673Z" fill="#EE0245"/>
<path d="M31.3651 14.7195C30.3426 14.5576 29.4405 14.1324 28.6312 13.5166C28.2547 13.2302 27.8888 12.9287 27.6284 12.5296C27.7192 12.5159 27.7706 12.5856 27.8332 12.626C28.8465 13.2644 29.9584 13.5986 31.1624 13.6396C31.3327 13.6458 31.3883 13.6895 31.3792 13.8556C31.3637 14.1427 31.3686 14.4318 31.3651 14.7195Z" fill="#0AFDF7"/>
<path d="M27.3179 12.223C27.2799 12.2216 27.2468 12.2162 27.2658 12.1656C27.3136 12.1587 27.3207 12.1868 27.3179 12.223Z" fill="#EE0245"/>
<path d="M27.364 12.2758C27.3331 12.2696 27.3091 12.2566 27.3162 12.2197C27.3528 12.2218 27.3683 12.2409 27.364 12.2758Z" fill="#EE0245"/>
<path d="M27.634 12.5309C27.5897 12.5363 27.5791 12.5049 27.5679 12.4741C27.6052 12.4762 27.634 12.4878 27.634 12.5309Z" fill="#0AFDF7"/>
<path d="M14.8833 27.7144C14.8531 27.7103 14.8263 27.7021 14.8376 27.6631C14.8742 27.6624 14.8868 27.6816 14.8833 27.7144Z" fill="#EE0245"/>
<path d="M15.0499 27.8705C15.0063 27.878 15 27.8479 14.9937 27.8179C15.0281 27.8192 15.0598 27.824 15.0499 27.8705Z" fill="#09FDF7"/>
<path d="M11.7497 30.4566C11.7835 30.447 11.7976 30.4662 11.8074 30.4921C11.7877 30.4942 11.768 30.4962 11.749 30.4983C11.749 30.4846 11.7497 30.471 11.7497 30.4566Z" fill="#0AFDF7"/>
<path d="M11.8207 30.5044C11.8326 30.5187 11.8446 30.5331 11.8565 30.5475C11.8397 30.5447 11.8221 30.5413 11.8052 30.5386C11.8108 30.527 11.8157 30.5153 11.8207 30.5044Z" fill="#0AFDF7"/>
<path d="M11.8731 30.5635C11.8914 30.5689 11.8991 30.5806 11.8949 30.5983C11.8871 30.5997 11.878 30.6045 11.8724 30.6017C11.8667 30.599 11.8618 30.5894 11.8618 30.5826C11.8625 30.5765 11.8696 30.5696 11.8731 30.5635Z" fill="#0AFDF7"/>
<path d="M12.1401 30.8228C12.1774 30.8289 12.2105 30.8405 12.2091 30.8863C12.1584 30.8932 12.1458 30.8617 12.1401 30.8228Z" fill="#EE0244"/>
</svg>
